# xmcd CD database file
#
# Track frame offsets:
#	150
#	7497
#	14230
#	21521
#	28871
#	36123
#	43179
#	50357
#	57109
#	63833
#	71268
#	78622
#	85950
#	93161
#	100219
#	107129
#	114404
#	121742
#	129047
#	136284
#	143165
#	150361
#	157298
#	164240
#	171021
#	178035
#	185192
#	192655
#	199535
#	206342
#	213096
#	220390
#	227830
#	234960
#	241775
#	248822
#	255706
#	262653
#	270091
#	277500
#	284627
#	291032
#	297843
#	305279
#	312008
#	318722
#	326111
#	333363
#	340794
#	348033
#
# Disc length: 4738 seconds
#
# Revision: 0
# Processed by: cddbd v1.5.2PL0 Copyright (c) Steve Scherf et al.
# Submitted via: CDex 1.70beta2
#
DISCID=d9128032
DTITLE=Various Artist - Best Blue Note RVG 100 [CD1]
DYEAR=2008
DGENRE=Jazz
TTITLE0=Miles Davis - Dear Old Stockholm
TTITLE1=Miles Davis - Tempus Fugit
TTITLE2=Thelonious Monk - Round Midnight
TTITLE3=Thelonious Monk - Straight No Chaser
TTITLE4=Horace Silver - Senor Blues
TTITLE5=Sonny Rollins - Tune Up
TTITLE6=Jackie McLean - What's New
TTITLE7=Horace Parlan - Us Three
TTITLE8=Dexter Gordon - Scrapple From The Apple
TTITLE9=Herbie Hancock - Cantaloupe Island
TTITLE10=Bud Powell - Un Poco Loco
TTITLE11=Bud Powell - Polka Dots And Moonmeams
TTITLE12=Sonny Clark - It Could Happen To You
TTITLE13=Sonny Rollins - Old Debil Moon
TTITLE14=Sonny Rollins - Softly As In A Morning Sunrise
TTITLE15=Horace Silver - Cookin' At The Continental
TTITLE16=Donald Byrd - Amen
TTITLE17=Tina Brooks - Back To The Tracks
TTITLE18=Hank Mobley - Recado Bossa Nova
TTITLE19=Lou Donaldson - Alligator Bogaloo
TTITLE20=Milt Jackson - Bags' Groove
TTITLE21=Horace Silver - Opus De Funk
TTITLE22=Sonny Rollins - Decision
TTITLE23=Johnny Griffin - The Way You Look Tonight
TTITLE24=Lee Morgan - City Lights
TTITLE25=Jimmy Smith - Auprivave
TTITLE26=Duke Person - I'm A Fool To Want You
TTITLE27=Hank Mobley - Roll Call
TTITLE28=Dexter Gordon - Cheese Cake
TTITLE29=Bobby Hutcherson - Head Start
TTITLE30=Kenny Dorham - Afrodisia
TTITLE31=Lee Morgan - I Remember Clifford
TTITLE32=Sonny Rollins - Poor Butterfly
TTITLE33=Paul Chambers - You'd Be So Nice To Come Home To
TTITLE34=Bud Powell - Blue Pearl
TTITLE35=Walter Davis, Jr. - 'smake It
TTITLE36=Hank Mobley - Remember
TTITLE37=Duke Jordan - Si-Joya
TTITLE38=Herbie Hancock - Watermelon Man
TTITLE39=Eric Dolphy - Hat And Beard
TTITLE40=Jutta Hipp - Take Me In Your Arms
TTITLE41=Jutta Hipp - Gone With The Wind
TTITLE42=Thad Jones - April In Paris
TTITLE43=Paul Chambers - We Six
TTITLE44=Kenny Drew - Undercurrent
TTITLE45=Jimmy Smith - Jumpin' The Blues
TTITLE46=Lou Donaldson - South Of The Border
TTITLE47=Joe Henderson - Blue Bossa
TTITLE48=Dexter Gordon - Manha De Carnaval
TTITLE49=Lee Morgan - Yesterday
EXTD=YEAR: 2008
EXTT0=
EXTT1=
EXTT2=
EXTT3=
EXTT4=
EXTT5=
EXTT6=
EXTT7=
EXTT8=
EXTT9=
EXTT10=
EXTT11=
EXTT12=
EXTT13=
EXTT14=
EXTT15=
EXTT16=
EXTT17=
EXTT18=
EXTT19=
EXTT20=
EXTT21=
EXTT22=
EXTT23=
EXTT24=
EXTT25=
EXTT26=
EXTT27=
EXTT28=
EXTT29=
EXTT30=
EXTT31=
EXTT32=
EXTT33=
EXTT34=
EXTT35=
EXTT36=
EXTT37=
EXTT38=
EXTT39=
EXTT40=
EXTT41=
EXTT42=
EXTT43=
EXTT44=
EXTT45=
EXTT46=
EXTT47=
EXTT48=
EXTT49=
PLAYORDER=
